:SAMPLES-PER-SECOND 30
:FULLY-SPECIFIED
:DEGREES
41
root  81.552 37.2464 -1.78699 8.25377 -83.5322 -11.0543
RightUpLeg  0.0830037 -10.8808 -1.03528
RightLeg  25.3099 4.446 2.3128
RightFoot  -23.4426 -0.332767 -1.64288
RightToes  -8.3237e-009 0 -3.6325e-017
Spine  2.1536 0.280378 16.9848
Spine1  6.52797 1.89264 -3.75104
HEad  -14.529 -6.12772 -1.73941
LeftShoulder1  -0.0997366 3.76027 -32.7759
LeftArm  5.26829 8.84215 -41.6785
LeftForeArm  29.4665 -13.5469 -8.35403
LeftHand  -0.01859 9.94711 0.920121
RightShoulder  -0.901923 -5.86796 31.5285
RightArm  23.8171 5.14798 44.7343
RightForeArm  12.9363 8.91548 9.94731
RightHand  -0.203179 3.92923 -2.7779
LeftUpLeg  -16.2162 -5.93734 8.70333
LeftLeg  138.347 -60.9583 -144.151
LeftFoot  -27.1397 1.42089 8.82339
LeftToes  -1.18267e-011 3.61711e-011 9.57411e-011
42
root  81.1044 37.6619 -1.91018 -5.64117 -84.9366 3.35095
RightUpLeg  1.99761 -10.1188 -2.27142
RightLeg  21.3671 5.20611 1.80293
RightFoot  -21.8765 -0.298971 -1.6368
RightToes  -8.3237e-009 0 -3.6325e-017
Spine  2.02072 0.973346 13.9825
Spine1  7.51262 2.70621 -4.25065
HEad  -14.7764 -6.38563 -1.46067
LeftShoulder1  -0.0291368 3.57885 -32.6954
LeftArm  2.25398 9.47842 -41.5337
LeftForeArm  31.4048 -12.0161 -8.6685
LeftHand  -0.0489556 9.9661 0.16923
RightShoulder  -0.903616 -5.86878 31.5871
RightArm  24.2227 5.13654 44.567
RightForeArm  11.8399 9.39715 9.86279
RightHand  -0.281461 4.22909 -3.65247
LeftUpLeg  -13.7007 -3.90987 8.08317
LeftLeg  109.57 -75.7731 -112.128
LeftFoot  -24.6292 0.151465 0.173909
LeftToes  -1.18267e-011 3.61711e-011 9.57411e-011
43
root  80.4498 37.7135 -1.90802 -11.7332 -86.0386 9.38599
RightUpLeg  3.72006 -9.58572 -2.59395
RightLeg  19.9478 5.98211 1.38379
RightFoot  -21.9963 -0.296426 -1.58185
RightToes  -8.3237e-009 0 -3.6325e-017
Spine  1.93494 1.45513 12.5055
Spine1  8.20627 3.11062 -3.96769
HEad  -15.3337 -6.30702 -1.26351
LeftShoulder1  -0.0997105 3.75957 -32.8656
LeftArm  0.927503 9.89549 -41.2618
LeftForeArm  32.7923 -11.3553 -8.68719
LeftHand  -0.077846 9.31478 -0.825717
RightShoulder  -0.925645 -5.93796 31.4183
RightArm  23.9888 5.52805 45.0196
RightForeArm  12.8835 9.51421 9.71743
RightHand  -0.159646 3.41635 -2.36262
LeftUpLeg  -12.6384 -2.60911 7.42817
LeftLeg  108.434 -78.7392 -110.696
LeftFoot  -23.7878 -0.0393639 -1.61961
LeftToes  -1.18267e-011 3.61711e-011 9.57411e-011
44
root  79.7503 37.6836 -1.76251 -23.6 -86.1218 21.3483
RightUpLeg  5.27844 -9.8892 -3.6832
RightLeg  19.0709 6.85125 1.50597
RightFoot  -22.5404 -0.303499 -1.53521
RightToes  -8.3237e-009 0 -3.6325e-017
Spine  1.6134 1.54484 11.8849
Spine1  8.77669 3.38859 -4.59304
HEad  -15.9939 -7.10858 -1.0006
LeftShoulder1  -0.109009 3.78246 -33.0002
LeftArm  0.562342 10.3765 -40.815
LeftForeArm  33.769 -11.0545 -8.7243
LeftHand  -0.0485576 6.91018 -0.730607
RightShoulder  -0.934246 -5.95632 31.4864
RightArm  23.6101 5.39018 45.1579
RightForeArm  12.7016 9.46308 9.65697
RightHand  -0.186774 3.51907 -2.68625
LeftUpLeg  -11.4232 -1.76001 6.2064
LeftLeg  81.4461 -80.5468 -82.8977
LeftFoot  -23.87 -0.383591 -4.76108
LeftToes  -1.18267e-011 3.61711e-011 9.57411e-011
45
root  78.962 37.6847 -1.64197 -47.2693 -87.6232 44.9152
RightUpLeg  6.87936 -9.25008 -4.48582
RightLeg  18.2729 8.38124 1.21398
RightFoot  -22.9007 -0.268293 -1.12744
RightToes  -8.3237e-009 0 -3.6325e-017
Spine  1.36555 2.33834 11.5234
Spine1  9.58712 4.59495 -5.83342
HEad  -16.2654 -8.07543 -0.665794
LeftShoulder1  -0.0625134 3.66357 -33.0303
LeftArm  0.792562 11.1015 -40.3228
LeftForeArm  33.0008 -11.2779 -8.67085
LeftHand  -0.0608228 8.49376 -0.501941
RightShoulder  -0.944128 -5.98033 31.5167
RightArm  24.0927 4.68896 45.2337
RightForeArm  11.749 10.1527 9.46766
RightHand  -0.194949 4.15403 -2.6454
LeftUpLeg  -10.2426 -0.295061 5.64532
LeftLeg  67.9438 -79.4318 -69.1778
LeftFoot  -23.2866 -0.186842 -3.13922
LeftToes  -1.18267e-011 3.61711e-011 9.57411e-011
46
root  78.152 37.287 -1.35618 -25.7862 -87.2175 23.6171
RightUpLeg  7.17568 -9.24418 -4.3531
RightLeg  20.5834 7.55832 1.25805
RightFoot  -25.233 -0.2372 -0.541861
RightToes  -8.3237e-009 0 -3.6325e-017
Spine  1.00908 2.00104 11.595
Spine1  9.3825 4.07144 -4.81255
HEad  -16.9323 -8.24135 -0.915225
LeftShoulder1  -0.0923991 3.73809 -33.2589
LeftArm  0.458537 11.3933 -40.0075
LeftForeArm  32.9188 -11.2869 -8.58066
LeftHand  -0.0498554 8.45912 -0.151686
RightShoulder  -0.885173 -5.83709 31.3143
RightArm  23.9604 4.01771 45.3422
RightForeArm  11.8909 10.6404 9.1874
RightHand  -0.163662 3.68322 -2.34523
LeftUpLeg  -11.1867 -3.0969 5.64874
LeftLeg  85.4372 -78.116 -87.3209
LeftFoot  -27.1237 -0.00179776 -1.26536
LeftToes  -1.18267e-011 3.61711e-011 9.57411e-011
47
root  77.2581 36.9212 -1.05304 -24.9973 -87.6914 22.8215
RightUpLeg  7.54733 -7.96919 -4.38757
RightLeg  23.0399 6.94744 1.11347
RightFoot  -27.2863 -0.132499 0.366891
RightToes  -8.3237e-009 0 -3.6325e-017
Spine  0.959079 1.94495 11.806
Spine1  8.86266 4.10256 -4.82907
HEad  -17.4019 -9.24565 -0.459377
LeftShoulder1  -0.179249 3.95629 -33.4942
LeftArm  0.821357 11.8995 -39.3545
LeftForeArm  32.3297 -11.6621 -8.45348
LeftHand  -0.0497921 7.65852 -0.356829
RightShoulder  -0.920486 -5.92347 31.4311
RightArm  24.2964 3.73177 45.6067
RightForeArm  12.3724 10.5745 9.28109
RightHand  -0.126303 3.663 -1.85846
LeftUpLeg  -12.0097 -4.02288 5.60768
LeftLeg  110.51 -75.1318 -113.306
LeftFoot  -29.3536 0.602505 2.73992
LeftToes  -1.18267e-011 3.61711e-011 9.57411e-011
